<svg xmlns="http://www.w3.org/2000/svg" width="23" height="24" fill="none"><path fill="#9F7AEA" fill-rule="evenodd" d="M8.243 22.376s1.168.616 2.266.98c0 0 .568.205 1.136 0 0 0 1.097-.364 2.265-.98 0 0 1.877-.99 3.367-2.362 0 0 4.43-4.077 4.43-10.396v-6.5s0-.734-.518-1.253c0 0-.52-.52-1.253-.52H2.217s-.734 0-1.253.52c0 0-.519.519-.519 1.253v6.5s0 6.319 4.43 10.396c0 0 1.491 1.372 3.368 2.362Zm4.84-1.567s-1.043.55-2.006.869c0 0-.963-.319-2.007-.87 0 0-1.673-.882-2.994-2.098 0 0-3.859-3.55-3.859-9.092v-6.5h17.719v6.5s0 5.541-3.859 9.092c0 0-1.32 1.216-2.994 2.099Z" clip-rule="evenodd"/><path fill="#9F7AEA" d="M6.814 10.893a.886.886 0 0 0-.612-.245h-.02a.886.886 0 0 0-.866.886v.02a.886.886 0 0 0 .274.62l3.245 3.1a.886.886 0 0 0 1.224.001l6.5-6.201a.887.887 0 0 0-.611-1.527h-.025a.886.886 0 0 0-.587.245l-5.888 5.617-2.634-2.516Z"/></svg>
