<svg xmlns="http://www.w3.org/2000/svg" width="68" height="96" fill="none"><g clip-path="url(#a)"><path fill="url(#b)" d="M64.97.729H2.33C1.04.729 0 1.757 0 3.029v90.407c0 1.272 1.041 2.3 2.33 2.3h62.64c1.288 0 2.33-1.028 2.33-2.3V3.029a2.323 2.323 0 0 0-2.33-2.3Z"/><path fill="#fff" d="M60.858 4.826H6.434c-1.25 0-2.268 1.006-2.268 2.247v74.748c0 1.241 1.018 2.24 2.268 2.24h54.424c1.258 0 2.268-1.006 2.268-2.24V7.073a2.254 2.254 0 0 0-2.268-2.247Z"/><path fill="url(#c)" d="M44.773 40.364H22.525a1.832 1.832 0 0 1-1.843-1.82V16.57c0-1.005.825-1.82 1.843-1.82h22.248c1.019 0 1.844.815 1.844 1.82v21.966a1.839 1.839 0 0 1-1.844 1.828Z"/><path fill="#fff" d="M33.65 93.275c1.891 0 3.425-1.514 3.425-3.382 0-1.867-1.534-3.381-3.425-3.381-1.892 0-3.425 1.514-3.425 3.381 0 1.868 1.533 3.382 3.425 3.382Z"/><path fill="url(#d)" d="M53.036 51.743h-38.78c-.98 0-1.781-.792-1.781-1.759 0-.967.802-1.76 1.782-1.76h38.772c.98 0 1.782.793 1.782 1.76a1.77 1.77 0 0 1-1.775 1.76Z"/><path fill="url(#e)" d="M46.471 61.492H13.61a1.12 1.12 0 0 1-1.127-1.112v-.122c0-.616.51-1.111 1.127-1.111H46.47a1.12 1.12 0 0 1 1.127 1.111v.122c.008.61-.502 1.112-1.127 1.112Z" opacity=".6"/><path fill="url(#f)" d="M40.215 67.685H13.501a1.024 1.024 0 0 1-1.026-1.013v-.335c0-.556.463-1.013 1.026-1.013h26.707c.563 0 1.025.457 1.025 1.013v.335c0 .556-.462 1.013-1.018 1.013Z" opacity=".3"/><path fill="url(#g)" d="M43.579 73.42H13.562c-.594 0-1.08-.48-1.08-1.066v-.213c0-.587.486-1.067 1.08-1.067H43.58c.594 0 1.08.48 1.08 1.067v.213c0 .579-.486 1.066-1.08 1.066Z" opacity=".6"/><path fill="#fff" d="M33.717 26.85a4.034 4.034 0 0 0 4.033-4.035 4.034 4.034 0 1 0-8.066 0 4.029 4.029 0 0 0 4.033 4.035Zm0 2.018c-2.692 0-8.067 1.35-8.067 4.035v1.013c0 .557.456 1.013 1.013 1.013h14.125c.557 0 1.012-.456 1.012-1.013v-1.013c-.017-2.676-5.391-4.035-8.083-4.035Z"/></g><defs><linearGradient id="b" x1="4.077" x2="67.344" y1="45.759" y2="51.182" gradientUnits="userSpaceOnUse"><stop stop-color="#6CBCFC"/><stop offset="1" stop-color="#458DFC"/></linearGradient><linearGradient id="c" x1="18.67" x2="48.465" y1="20.02" y2="35.397" gradientUnits="userSpaceOnUse"><stop stop-color="#B0F4FF"/><stop offset=".086" stop-color="#A3F0FE"/><stop offset=".297" stop-color="#8AE7FD"/><stop offset=".516" stop-color="#77E1FD"/><stop offset=".745" stop-color="#6DDDFC"/><stop offset="1" stop-color="#69DCFC"/></linearGradient><linearGradient id="d" x1="54.814" x2="12.482" y1="49.985" y2="49.985" gradientUnits="userSpaceOnUse"><stop stop-color="#6CBCFC"/><stop offset="1" stop-color="#458DFC"/></linearGradient><linearGradient id="e" x1="47.603" x2="12.482" y1="60.316" y2="60.316" gradientUnits="userSpaceOnUse"><stop stop-color="#6CBCFC"/><stop offset="1" stop-color="#458DFC"/></linearGradient><linearGradient id="f" x1="41.234" x2="12.482" y1="66.509" y2="66.509" gradientUnits="userSpaceOnUse"><stop stop-color="#6CBCFC"/><stop offset="1" stop-color="#458DFC"/></linearGradient><linearGradient id="g" x1="44.658" x2="12.482" y1="72.241" y2="72.241" gradientUnits="userSpaceOnUse"><stop stop-color="#6CBCFC"/><stop offset="1" stop-color="#458DFC"/></linearGradient><clipPath id="a"><path fill="#fff" d="M0 .729h67.292v95H0z"/></clipPath></defs></svg>
