<svg xmlns="http://www.w3.org/2000/svg" width="31" height="31" fill="none"><path fill="#4299E1" fill-rule="evenodd" d="M15.075 3.422s2.38 0 4.554.92c0 0 2.1.888 3.72 2.507 0 0 1.618 1.619 2.506 3.718 0 0 .92 2.175.92 4.555 0 0 0 2.38-.92 4.554 0 0-.888 2.1-2.507 3.72 0 0-1.619 1.618-3.719 2.506 0 0-2.174.92-4.554.92 0 0-2.38 0-4.554-.92 0 0-2.1-.888-3.72-2.507 0 0-1.618-1.619-2.506-3.719 0 0-.92-2.174-.92-4.554 0 0 0-2.38.92-4.555 0 0 .888-2.1 2.507-3.718 0 0 1.619-1.62 3.719-2.507 0 0 2.174-.92 4.554-.92Zm0 1.8s-2.015 0-3.853.777c0 0-1.777.752-3.147 2.123 0 0-1.371 1.37-2.122 3.147 0 0-.778 1.838-.778 3.853 0 0 0 2.015.778 3.853 0 0 .751 1.777 2.122 3.147 0 0 1.37 1.37 3.147 2.122 0 0 1.838.778 3.853.778 0 0 2.015 0 3.853-.778 0 0 1.777-.751 3.147-2.122 0 0 1.371-1.37 2.122-3.147 0 0 .778-1.838.778-3.853 0 0 0-2.015-.778-3.853 0 0-.751-1.777-2.122-3.147 0 0-1.37-1.371-3.147-2.122 0 0-1.838-.778-3.853-.778Z" clip-rule="evenodd"/><path fill="#4299E1" d="M4.275 16.02h21.6a.9.9 0 0 0 0-1.8h-21.6a.9.9 0 1 0 0 1.8Z"/><path fill="#4299E1" fill-rule="evenodd" d="M15.076 3.713s1.285 0 2.384 1.085c0 0 .933.922 1.625 2.538 0 0 1.39 3.248 1.39 7.784 0 0 0 4.537-1.39 7.785 0 0-.692 1.616-1.625 2.537 0 0-1.1 1.086-2.384 1.086 0 0-1.285 0-2.384-1.085 0 0-.933-.922-1.625-2.538 0 0-1.391-3.248-1.391-7.785 0 0 0-4.536 1.39-7.784 0 0 .693-1.616 1.626-2.538 0 0 1.099-1.085 2.384-1.085Zm0 1.8s-.546 0-1.12.566c0 0-.681.674-1.235 1.966 0 0-1.245 2.908-1.245 7.075 0 0 0 4.168 1.245 7.076 0 0 .553 1.292 1.236 1.966 0 0 .573.566 1.119.566 0 0 .546 0 1.119-.566 0 0 .682-.674 1.235-1.966 0 0 1.246-2.908 1.246-7.076 0 0 0-4.167-1.245-7.075 0 0-.554-1.292-1.236-1.966 0 0-.573-.566-1.12-.566Z" clip-rule="evenodd"/></svg>
