<svg xmlns="http://www.w3.org/2000/svg" width="63" height="86" fill="none"><g clip-path="url(#a)"><path fill="url(#b)" d="m62.22 26.61-.19 39.8-.033 7.699c-.032 6.117-5.845 11.052-13 11.02l-35.745-.16C6.113 84.922.332 79.94.363 73.805l.224-47.499c.016-4.95 3.85-9.135 9.088-10.525l.016-2.555v-1.31l43.554.208-.016 3.865c5.223 1.453 9.008 5.654 8.992 10.62Z"/><path fill="url(#c)" d="M56.487 1.902v.351l-.032 4.153-.032 4.072v.495c0 .767-.639 1.39-1.406 1.39h-.335l-2.108-.016-2.316-.016-2.108-.016-2.316-.016-2.14-.032-2.316-.016-2.108-.016-2.332-.016-2.125-.016-2.315-.016-2.109-.032-2.316-.016-2.108-.015-2.332-.017-2.124-.015-2.3-.017-2.108-.015-2.316-.016-2.124-.016-2.316-.016-2.124-.016h-.335c-.767 0-1.39-.64-1.39-1.406v-.367l.064-8.21v-.495c0-.766.639-1.39 1.421-1.39h.336l4.44.033 4.44.032 2.124.016 2.316.016 2.108.016 4.424.048 2.316.016 2.108.016 2.316.016 2.108.016 2.316.015 2.109.016L43.758.4l2.108.016 2.348.032 2.108.016 2.316.016 2.124.016h.335c.783.016 1.39.64 1.39 1.406Z"/><path fill="url(#d)" d="m56.487 2.27-.032 4.136-.032 4.073-1.9-.016-2.524-.016-2.316-.016h-2.54l-2.316-.016-2.523-.016-2.316-.016h-2.54l-2.315-.016-2.54-.016-2.3-.016h-2.539l-2.316-.016-2.54-.016-2.315-.016h-2.524l-2.315-.016-2.54-.016-2.316-.016H8.365l-1.869-.016.064-8.21L11 2.03l4.84.032 2.315.016 2.54.016h2.316l4.839.031 2.54.016h2.315l2.54.016 2.3.016 2.539.016H42.4l2.54.016 2.3.016 2.539.016h2.316l2.539.016 1.853.016Z"/><path fill="#F7F9FC" d="M62.175 35.012.54 34.721l-.13 27.327 61.635.291.129-27.327Z"/><path fill="#FBFCF7" d="M62.185 35.012.55 34.721.528 39.64l61.633.291.024-4.919Z"/><path fill="url(#e)" d="m24.575 45.708-3.977-.016.016-3.992-5.478-.016-.016 3.977-3.977-.017-.032 5.463 3.977.016-.016 3.993 5.478.016.016-3.977 3.977.016.032-5.463Z"/><path fill="url(#f)" d="m51.6 47.036-19.708-.096a.961.961 0 0 1-.958-.958v-.447c0-.528.43-.959.958-.959l19.709.096c.527 0 .958.431.958.958v.447a.961.961 0 0 1-.958.959Z"/><path fill="url(#g)" d="m51.583 52.897-19.709-.096a.961.961 0 0 1-.958-.958v-.447c0-.527.431-.959.958-.959l19.71.096c.526 0 .957.432.957.959v.447a.961.961 0 0 1-.958.958Z" opacity=".5"/><path fill="#1A6FB5" d="M6.496 1.902v.35l.032 4.154.032 4.056v.495c0 .767.639 1.39 1.405 1.39h.336l2.124-.016 2.316-.016 2.108-.016 2.316-.016 2.108-.016 2.316-.016 2.108-.016 2.316-.016 2.124-.016 2.316-.016 2.109-.016 2.315-.016 2.109-.016 2.315-.016 2.125-.016 2.316-.016 2.108-.016 2.316-.016 2.108-.016 2.316-.015 2.124-.017h.335c.767 0 1.39-.638 1.39-1.405v-.367C31.73 11.309 7.886.496 7.886.496a1.415 1.415 0 0 0-1.39 1.406Z" opacity=".08"/></g><defs><linearGradient id="b" x1=".363" x2="57.502" y1="11.462" y2="90.323" gradientUnits="userSpaceOnUse"><stop stop-color="#6CBCFC"/><stop offset="1" stop-color="#458DFC"/></linearGradient><linearGradient id="c" x1="-629.567" x2="-27.241" y1="-39.802" y2="2.151" gradientUnits="userSpaceOnUse"><stop stop-color="#B0F4FF"/><stop offset=".053" stop-color="#A9F2FF"/><stop offset=".288" stop-color="#8DE8FE"/><stop offset=".525" stop-color="#79E1FD"/><stop offset=".762" stop-color="#6DDDFC"/><stop offset="1" stop-color="#69DCFC"/></linearGradient><linearGradient id="d" x1="6.503" x2="56.489" y1="6.242" y2="6.242" gradientUnits="userSpaceOnUse"><stop stop-color="#B0F4FF"/><stop offset=".053" stop-color="#A9F2FF"/><stop offset=".288" stop-color="#8DE8FE"/><stop offset=".525" stop-color="#79E1FD"/><stop offset=".762" stop-color="#6DDDFC"/><stop offset="1" stop-color="#69DCFC"/></linearGradient><linearGradient id="e" x1="22.34" x2="12.96" y1="43.223" y2="54.041" gradientUnits="userSpaceOnUse"><stop stop-color="#6CBCFC"/><stop offset="1" stop-color="#458DFC"/></linearGradient><linearGradient id="f" x1="52.749" x2="29.251" y1="45.801" y2="45.801" gradientUnits="userSpaceOnUse"><stop stop-color="#6CBCFC"/><stop offset="1" stop-color="#458DFC"/></linearGradient><linearGradient id="g" x1="30.915" x2="52.542" y1="51.662" y2="51.662" gradientUnits="userSpaceOnUse"><stop stop-color="#6CBCFC"/><stop offset="1" stop-color="#458DFC"/></linearGradient><clipPath id="a"><path fill="#fff" d="M.363.129H62.22v85H.363z"/></clipPath></defs></svg>
