<svg xmlns="http://www.w3.org/2000/svg" width="93" height="91" fill="none"><g clip-path="url(#a)"><path fill="url(#b)" d="m56.504 43.444-9.078 8.665L9.092 88.695a5.176 5.176 0 0 1-3.588 1.444 5.176 5.176 0 0 1-3.853-1.71c-2.023-2.233-1.759-5.726.57-7.63l45.206-36.843 4.98-4.056 4.097 3.544Z"/><path fill="#3A81D6" fill-opacity=".8" d="m47.03 52.55-8.935 8.522-.823-8.758 4.89-3.984 4.868 4.22Z"/><path fill="url(#c)" d="M92.267 30.037c0 16.52-13.296 29.918-29.683 29.918-10.328 0-19.427-5.316-24.743-13.387a29.93 29.93 0 0 1-4.94-16.531C32.9 13.516 46.196.129 62.583.129c7.4 0 14.16 2.724 19.355 7.231a29.95 29.95 0 0 1 10.328 22.677Z"/><path fill="#fff" d="M62.584 53.337c12.772 0 23.126-10.432 23.126-23.301 0-12.87-10.354-23.302-23.126-23.302-12.773 0-23.127 10.433-23.127 23.302s10.354 23.301 23.127 23.301Z"/><path fill="#1A6FB5" fill-opacity=".5" d="M92.266 30.036c0 16.521-13.296 29.918-29.683 29.918-10.328 0-19.427-5.316-24.743-13.387C71.315 43.822 80.139 15.246 81.948 7.36a29.976 29.976 0 0 1 10.318 22.677Z" opacity=".06"/><path fill="url(#d)" d="M62.584 30.089c2.683 0 4.859-2.192 4.859-4.896 0-2.704-2.176-4.896-4.86-4.896-2.683 0-4.859 2.192-4.859 4.896 0 2.704 2.166 4.896 4.86 4.896Zm0 2.447c-3.243 0-9.719 1.64-9.719 4.896v1.23c0 .675.55 1.229 1.22 1.229h17.017c.671 0 1.22-.553 1.22-1.23v-1.229c-.02-3.246-6.496-4.896-9.739-4.896Z"/></g><defs><linearGradient id="b" x1="5.963" x2="54.213" y1="84.456" y2="40.921" gradientUnits="userSpaceOnUse"><stop stop-color="#67C3F3"/><stop offset="1" stop-color="#5A98F2"/></linearGradient><linearGradient id="c" x1="50.307" x2="73.071" y1="2.242" y2="53.034" gradientUnits="userSpaceOnUse"><stop stop-color="#67C3F3"/><stop offset="1" stop-color="#5A98F2"/></linearGradient><linearGradient id="d" x1="55.558" x2="73.209" y1="28.524" y2="37.069" gradientUnits="userSpaceOnUse"><stop stop-color="#B0F4FF"/><stop offset=".071" stop-color="#A6F1FF"/><stop offset=".294" stop-color="#8BE8FD"/><stop offset=".521" stop-color="#78E1FD"/><stop offset=".754" stop-color="#6DDDFC"/><stop offset="1" stop-color="#69DCFC"/></linearGradient><clipPath id="a"><path fill="#fff" d="M.29.129h91.977v90H.29z"/></clipPath></defs></svg>
