<svg xmlns="http://www.w3.org/2000/svg" width="30" height="31" fill="none"><path fill="#ED64A6" fill-rule="evenodd" d="M15.22 19.078 9.366 25.86a.944.944 0 0 1-.044.049s-1.056 1.055-2.55 1.055c0 0-1.492 0-2.548-1.055 0 0-1.056-1.056-1.056-2.55 0 0 0-1.492 1.056-2.548a.857.857 0 0 1 .048-.045l6.782-5.854s-.887-1.978-.636-4.184c0 0 .293-2.578 2.03-4.504 0 0 1.738-1.927 4.272-2.483 0 0 2.535-.556 4.92.465a.9.9 0 0 1 .28 1.465l-4.382 4.372.428 2.124 2.123.428 4.373-4.383a.9.9 0 0 1 1.464.28s1.022 2.386.465 4.92c0 0-.556 2.534-2.483 4.272 0 0-1.926 1.737-4.504 2.03 0 0-2.206.251-4.184-.636Zm3.98-1.152s-2.003.228-3.765-.752h-.001a.9.9 0 0 0-1.119.198l-6.288 7.285s-.522.507-1.254.507c0 0-.748 0-1.276-.528 0 0-.529-.529-.529-1.276 0 0 0-.733.507-1.255l7.286-6.288a.9.9 0 0 0 .198-1.119s-.98-1.762-.752-3.767c0 0 .227-2.004 1.578-3.501 0 0 1.351-1.498 3.322-1.93 0 0 1.267-.279 2.486-.05l-3.668 3.66a.9.9 0 0 0-.247.815l.641 3.184a.9.9 0 0 0 .705.704l3.183.641a.9.9 0 0 0 .815-.246l3.66-3.669s.23 1.22-.049 2.487c0 0-.432 1.97-1.93 3.321 0 0-1.498 1.351-3.502 1.579Z" clip-rule="evenodd"/></svg>
