<?xml version="1.0" encoding="UTF-8"?> <svg xmlns="http://www.w3.org/2000/svg" width="119.047" height="34.838" viewBox="0 0 119.047 34.838"><g id="Group_1111" data-name="Group 1111" transform="translate(-53.178 -37)"><g id="Group_1104" data-name="Group 1104" transform="translate(53.178 37)"><path id="Path_1758" data-name="Path 1758" d="M263.76,200h-5.345v8.976h5.345c5.273,0,5.329-8.976,0-8.976" transform="translate(-247.312 -191.179)" fill="#0075c9"></path><path id="Path_1759" data-name="Path 1759" d="M80.853,37H54.034a.88.88,0,0,0-.856.894V64.283l5.969,3.148V45.848H56.3v-4.99H70.4c11.216,0,11.1,18.892,0,18.892h-6.27V70.076l3.35,1.762L81.7,64.283V37.894a.876.876,0,0,0-.85-.894" transform="translate(-53.178 -37)" fill="#0075c9"></path></g><g id="Group_1105" data-name="Group 1105" transform="translate(88.518 40.802)"><path id="Path_1760" data-name="Path 1760" d="M706.462,126.455a3.508,3.508,0,0,1,3.5-3.508h2.4a10.307,10.307,0,0,1,4.377.671,5.386,5.386,0,0,1,2.759,5,5.3,5.3,0,0,1-2.4,4.765,8.919,8.919,0,0,1-4.717,1.083h-2.449v6.521h-3.475Zm3.475,4.92h2.63c1.7,0,3.377-.671,3.377-2.679,0-2.345-1.287-2.682-3.5-2.682h-2.061c-.441,0-.441.414-.441.854Z" transform="translate(-706.462 -122.1)" fill="#0075c9"></path><path id="Path_1761" data-name="Path 1761" d="M949.14,214.112a5.055,5.055,0,0,1-3.635,1.549,4.49,4.49,0,0,1-4.738-4.428,4.316,4.316,0,0,1,3.891-4.384l4.43-.644c-.1-1.317-2.166-1.782-3.065-1.782a8.813,8.813,0,0,0-3.58.8h-.364v-2.989a14.581,14.581,0,0,1,4-.671c3.092,0,6.1,1.161,6.209,4.563v9.224H949.14Zm-3.039-1.338a5.805,5.805,0,0,0,2.912-.925V208.81c-1.1.2-2.24.308-3.375.54a1.672,1.672,0,0,0-1.571,1.7c0,1.261.952,1.724,2.034,1.724" transform="translate(-928.091 -196.467)" fill="#0075c9"></path><path id="Path_1762" data-name="Path 1762" d="M1169.185,206.812h3.042l-5.952,16.413c-1,2.6-2.809,3.27-5.9,3.27h-.59v-2.831c2.47.025,3.3,0,3.941-1.779l.619-1.705-5.877-13.369h3.582l3.838,9.069Z" transform="translate(-1134.014 -201.428)" fill="#0075c9"></path><path id="Path_1763" data-name="Path 1763" d="M1356.9,126.094v-3.146h13.4v3.146h-5v14.894h-3.477V126.094Z" transform="translate(-1321.718 -122.1)" fill="#575756"></path><path id="Path_1764" data-name="Path 1764" d="M1592.046,214.112a5.063,5.063,0,0,1-3.631,1.549,4.487,4.487,0,0,1-4.741-4.428,4.313,4.313,0,0,1,3.89-4.384l4.431-.644c-.1-1.317-2.167-1.782-3.067-1.782a8.815,8.815,0,0,0-3.581.8h-.364v-2.989a14.586,14.586,0,0,1,4-.671c3.093,0,6.107,1.161,6.213,4.563v9.224h-3.147Zm-3.04-1.338a5.8,5.8,0,0,0,2.909-.925V208.81c-1.1.2-2.241.308-3.375.54a1.672,1.672,0,0,0-1.572,1.7c0,1.261.955,1.724,2.037,1.724" transform="translate(-1536.219 -196.467)" fill="#575756"></path><path id="Path_1765" data-name="Path 1765" d="M1842.69,126.459a3.255,3.255,0,0,1-3.242-3.275v-15.9h3.268v5.769a4.585,4.585,0,0,1,2.6-.668,6.138,6.138,0,0,1,4.722,2.086,7.74,7.74,0,0,1,1.411,4.741,8.838,8.838,0,0,1-1,4.354,6.211,6.211,0,0,1-5.563,2.89Zm.8-2.914h1.084a3.611,3.611,0,0,0,2.572-.822c.827-.852.93-2.4.93-3.508a5.063,5.063,0,0,0-.6-2.68,2.839,2.839,0,0,0-2.47-1.235,9.77,9.77,0,0,0-2.3.335V122.8a.772.772,0,0,0,.777.747" transform="translate(-1778.158 -107.288)" fill="#575756"></path><path id="Path_1766" data-name="Path 1766" d="M2070.985,214.958v-2.885h.409a11.36,11.36,0,0,0,3.792.724c.924-.026,2.471-.184,2.471-1.443,0-.7-1-1.033-1.622-1.266a33.14,33.14,0,0,1-3.275-1.286,3.758,3.758,0,0,1-1.908-3.376c0-2.578,2.4-3.892,4.641-3.867a14.085,14.085,0,0,1,4.145.719v2.76h-.434a10.12,10.12,0,0,0-3.3-.622c-.516,0-1.96.1-1.96.877,0,.411.747.827,1.316,1.008a30.742,30.742,0,0,1,3.452,1.312,3.779,3.779,0,0,1,2.037,3.582c0,3.093-2.859,4.433-5.7,4.433a13.454,13.454,0,0,1-4.068-.673" transform="translate(-1997.045 -196.461)" fill="#575756"></path></g></g></svg> 