<?xml version="1.0" encoding="UTF-8"?>
<svg id="Layer_1" data-name="Layer 1" xmlns="http://www.w3.org/2000/svg" viewBox="0 0 1080 1080">
  <defs>
    <style>
      .cls-1 {
        fill: #2b3497;
      }
    </style>
  </defs>
  <path class="cls-1" d="M405.5,446h-206.4v46.6h80.3v138.3h45.8v-138.3h80.3v-46.6Z"/>
  <path class="cls-1" d="M543.4,571.3s49.3,10.1,73.6-23.9c23.7-33,5.1-101.4-57.4-101.4h-123.3v184.9h45.8v-59.6s51.9,50.5,123.1,57c13.6,1.2,26.1,2.6,37.6,2.6v-48.9s-42.7,16.2-99.3-10.6ZM479.7,543.4l-.7-55h73.1c34.4,0,39.5,55-6.8,55h-65.5Z"/>
  <path class="cls-1" d="M837,446v138.5c-8.1-6.9-21.3-19.7-21.3-19.7,0,0-27.7,19.7-42,19.7,0,0-27.6,2-42.3-11.9-8.4-7.9-12.6-21.1-12.6-39.4v-87.2h-45.2v92.4c0,12.3,1.4,23.1,4.1,32.6,18.4,64.2,101.9,88.5,159.4,32.8v27h43v-184.9h-43Z"/>
</svg>